<svg width="900" height="900" xmlns="http://www.w3.org/2000/svg">

 <metadata id="metadata7">image/svg+xml</metadata>
 <g>
  <title>background</title>
  <rect fill="none" id="canvas_background" height="602" width="802" y="-1" x="-1"/>
 </g>
 <g>
  <title>Layer 1</title>
  <g id="layer1">
   <g id="g4146">
    <g id="g5232">
     <g id="g4634" transform="matrix(6.0838746,0,0,6.0838746,1531.0443,-460.16407) ">
      <path fill="#f21d1d" stroke="#000000" stroke-width="1.805" stroke-miterlimit="4" id="path4636" d="m-166.567212,181.523266l0,6.47595c0.00001,3.11611 11.47612,5.64221 25.63263,5.64221c14.1565,0 25.63262,-2.5261 25.63262,-5.64221l0,-6.47595l-51.26525,0"/>
      <path fill="#f21d1d" stroke="#000000" stroke-width="2.242981" stroke-miterlimit="4" stroke-dashoffset="0" id="path4638" d="m-166.567212,181.523264c0,3.116109 11.47612,5.642214 25.63262,5.642214c14.15651,0 25.63262,-2.526105 25.63262,-5.642214c0,-3.116102 -11.47611,-5.642207 -25.63262,-5.642207c-14.1565,0 -25.63262,2.526105 -25.63262,5.642207z"/>
      <path fill="#f21d1d" stroke="#000000" stroke-width="0.804733px" id="path4640" d="m-161.361512,184.932216l-0.0353,6.4657"/>
      <path fill="#f21d1d" stroke="#000000" stroke-width="0.804733px" id="path4642" d="m-153.572222,186.433196l-0.004,6.29594"/>
      <path fill="#f21d1d" stroke="#000000" stroke-width="0.804733px" id="path4644" d="m-146.376982,187.038046l0.0628,6.47891"/>
      <path fill="#f21d1d" stroke="#000000" stroke-width="0.804733px" id="path4646" d="m-140.934592,187.165476l0.00001,6.47595l0,0"/>
      <path fill="#f21d1d" stroke="#000000" stroke-width="0.804733px" id="path4648" d="m-136.217292,187.070136l0.089,6.47227"/>
      <path fill="#f21d1d" stroke="#000000" stroke-width="0.804733px" id="path4650" d="m-132.122282,186.823196l0.0283,6.34071"/>
      <path fill="#f21d1d" stroke="#000000" stroke-width="0.804733px" id="path4652" d="m-128.591312,186.469416l0.0243,6.434"/>
      <path fill="#f21d1d" stroke="#000000" stroke-width="0.804733px" id="path4654" d="m-125.790672,186.063956l-0.0429,6.49486"/>
      <path fill="#f21d1d" id="path4656" d="m-124.076492,192.252986l0.0587,-6.76505l7.97706,-3.52708l0.80357,1.15641l-0.17857,5.31953l-0.625,0.69385l-0.89286,0.98296l-7.1429,2.13938z"/>
      <path fill="#f21d1d" stroke="#000000" stroke-miterlimit="4" stroke-dashoffset="0" d="m-158.655079,181.523266c0,1.962083 7.93374,3.552666 17.720497,3.552666c9.786764,0 17.720497,-1.590582 17.720497,-3.552666c0,-1.962079 -7.933734,-3.552661 -17.720497,-3.552661c-9.786757,0 -17.720497,1.590582 -17.720497,3.552661z" id="path4658"/>
     </g>
     <g id="g4660" transform="matrix(6.0838746,0,0,6.0838746,1531.0443,-508.83502) ">
      <path fill="#f21d1d" stroke="#000000" stroke-width="1.805" stroke-miterlimit="4" d="m-166.567212,181.523266l0,6.47595c0.00001,3.11611 11.47612,5.64221 25.63263,5.64221c14.1565,0 25.63262,-2.5261 25.63262,-5.64221l0,-6.47595l-51.26525,0" id="path4662"/>
      <path fill="#f21d1d" stroke="#000000" stroke-width="2.242981" stroke-miterlimit="4" stroke-dashoffset="0" d="m-166.567212,181.523264c0,3.116109 11.47612,5.642214 25.63262,5.642214c14.15651,0 25.63262,-2.526105 25.63262,-5.642214c0,-3.116102 -11.47611,-5.642207 -25.63262,-5.642207c-14.1565,0 -25.63262,2.526105 -25.63262,5.642207z" id="path4664"/>
      <path fill="#f21d1d" stroke="#000000" stroke-width="0.804733px" d="m-161.361512,184.932216l-0.0353,6.4657" id="path4666"/>
      <path fill="#f21d1d" stroke="#000000" stroke-width="0.804733px" d="m-153.572222,186.433196l-0.004,6.29594" id="path4668"/>
      <path fill="#f21d1d" stroke="#000000" stroke-width="0.804733px" d="m-146.376982,187.038046l0.0628,6.47891" id="path4670"/>
      <path fill="#f21d1d" stroke="#000000" stroke-width="0.804733px" d="m-140.934592,187.165476l0.00001,6.47595l0,0" id="path4672"/>
      <path fill="#f21d1d" stroke="#000000" stroke-width="0.804733px" d="m-136.217292,187.070136l0.089,6.47227" id="path4674"/>
      <path fill="#f21d1d" stroke="#000000" stroke-width="0.804733px" d="m-132.122282,186.823196l0.0283,6.34071" id="path4676"/>
      <path fill="#f21d1d" stroke="#000000" stroke-width="0.804733px" d="m-128.591312,186.469416l0.0243,6.434" id="path4678"/>
      <path fill="#f21d1d" stroke="#000000" stroke-width="0.804733px" d="m-125.790672,186.063956l-0.0429,6.49486" id="path4680"/>
      <path fill="#f21d1d" d="m-124.076492,192.252986l0.0587,-6.76505l7.97706,-3.52708l0.80357,1.15641l-0.17857,5.31953l-0.625,0.69385l-0.89286,0.98296l-7.1429,2.13938z" id="path4682"/>
      <path fill="#f21d1d" stroke="#000000" stroke-miterlimit="4" stroke-dashoffset="0" id="path4684" d="m-158.655079,181.523266c0,1.962083 7.93374,3.552666 17.720497,3.552666c9.786764,0 17.720497,-1.590582 17.720497,-3.552666c0,-1.962079 -7.933734,-3.552661 -17.720497,-3.552661c-9.786757,0 -17.720497,1.590582 -17.720497,3.552661z"/>
     </g>
     <g transform="matrix(6.0838746,0,0,6.0838746,1543.212,-557.50603) " id="g4686">
      <path fill="#f21d1d" stroke="#000000" stroke-width="1.805" stroke-miterlimit="4" id="path4688" d="m-166.567212,181.523266l0,6.47595c0.00001,3.11611 11.47612,5.64221 25.63263,5.64221c14.1565,0 25.63262,-2.5261 25.63262,-5.64221l0,-6.47595l-51.26525,0"/>
      <path fill="#f21d1d" stroke="#000000" stroke-width="2.242981" stroke-miterlimit="4" stroke-dashoffset="0" id="path4690" d="m-166.567212,181.523264c0,3.116109 11.47612,5.642214 25.63262,5.642214c14.15651,0 25.63262,-2.526105 25.63262,-5.642214c0,-3.116102 -11.47611,-5.642207 -25.63262,-5.642207c-14.1565,0 -25.63262,2.526105 -25.63262,5.642207z"/>
      <path fill="#f21d1d" stroke="#000000" stroke-width="0.804733px" id="path4692" d="m-161.361512,184.932216l-0.0353,6.4657"/>
      <path fill="#f21d1d" stroke="#000000" stroke-width="0.804733px" id="path4694" d="m-153.572222,186.433196l-0.004,6.29594"/>
      <path fill="#f21d1d" stroke="#000000" stroke-width="0.804733px" id="path4697" d="m-146.376982,187.038046l0.0628,6.47891"/>
      <path fill="#f21d1d" stroke="#000000" stroke-width="0.804733px" id="path4699" d="m-140.934592,187.165476l0.00001,6.47595l0,0"/>
      <path fill="#f21d1d" stroke="#000000" stroke-width="0.804733px" id="path4701" d="m-136.217292,187.070136l0.089,6.47227"/>
      <path fill="#f21d1d" stroke="#000000" stroke-width="0.804733px" id="path4703" d="m-132.122282,186.823196l0.0283,6.34071"/>
      <path fill="#f21d1d" stroke="#000000" stroke-width="0.804733px" id="path4705" d="m-128.591312,186.469416l0.0243,6.434"/>
      <path fill="#f21d1d" stroke="#000000" stroke-width="0.804733px" id="path4707" d="m-125.790672,186.063956l-0.0429,6.49486"/>
      <path fill="#f21d1d" id="path4709" d="m-124.076492,192.252986l0.0587,-6.76505l7.97706,-3.52708l0.80357,1.15641l-0.17857,5.31953l-0.625,0.69385l-0.89286,0.98296l-7.1429,2.13938z"/>
      <path fill="#f21d1d" stroke="#000000" stroke-miterlimit="4" stroke-dashoffset="0" d="m-158.655079,181.523266c0,1.962083 7.93374,3.552666 17.720497,3.552666c9.786764,0 17.720497,-1.590582 17.720497,-3.552666c0,-1.962079 -7.933734,-3.552661 -17.720497,-3.552661c-9.786757,0 -17.720497,1.590582 -17.720497,3.552661z" id="path4711"/>
     </g>
     <g transform="matrix(6.0838746,0,0,6.0838746,1555.3798,-606.17701) " id="g4713">
      <path fill="#f21d1d" stroke="#000000" stroke-width="1.805" stroke-miterlimit="4" d="m-166.567212,181.523266l0,6.47595c0.00001,3.11611 11.47612,5.64221 25.63263,5.64221c14.1565,0 25.63262,-2.5261 25.63262,-5.64221l0,-6.47595l-51.26525,0" id="path4715"/>
      <path fill="#f21d1d" stroke="#000000" stroke-width="2.242981" stroke-miterlimit="4" stroke-dashoffset="0" d="m-166.567212,181.523264c0,3.116109 11.47612,5.642214 25.63262,5.642214c14.15651,0 25.63262,-2.526105 25.63262,-5.642214c0,-3.116102 -11.47611,-5.642207 -25.63262,-5.642207c-14.1565,0 -25.63262,2.526105 -25.63262,5.642207z" id="path4717"/>
      <path fill="#f21d1d" stroke="#000000" stroke-width="0.804733px" d="m-161.361512,184.932216l-0.0353,6.4657" id="path4719"/>
      <path fill="#f21d1d" stroke="#000000" stroke-width="0.804733px" d="m-153.572222,186.433196l-0.004,6.29594" id="path4721"/>
      <path fill="#f21d1d" stroke="#000000" stroke-width="0.804733px" d="m-146.376982,187.038046l0.0628,6.47891" id="path4723"/>
      <path fill="#f21d1d" stroke="#000000" stroke-width="0.804733px" d="m-140.934592,187.165476l0.00001,6.47595l0,0" id="path4725"/>
      <path fill="#f21d1d" stroke="#000000" stroke-width="0.804733px" d="m-136.217292,187.070136l0.089,6.47227" id="path4727"/>
      <path fill="#f21d1d" stroke="#000000" stroke-width="0.804733px" d="m-132.122282,186.823196l0.0283,6.34071" id="path4729"/>
      <path fill="#f21d1d" stroke="#000000" stroke-width="0.804733px" d="m-128.591312,186.469416l0.0243,6.434" id="path4731"/>
      <path fill="#f21d1d" stroke="#000000" stroke-width="0.804733px" d="m-125.790672,186.063956l-0.0429,6.49486" id="path4734"/>
      <path fill="#f21d1d" d="m-124.076492,192.252986l0.0587,-6.76505l7.97706,-3.52708l0.80357,1.15641l-0.17857,5.31953l-0.625,0.69385l-0.89286,0.98296l-7.1429,2.13938z" id="path4736"/>
      <path fill="#f21d1d" stroke="#000000" stroke-miterlimit="4" stroke-dashoffset="0" id="path4738" d="m-158.655079,181.523266c0,1.962083 7.93374,3.552666 17.720497,3.552666c9.786764,0 17.720497,-1.590582 17.720497,-3.552666c0,-1.962079 -7.933734,-3.552661 -17.720497,-3.552661c-9.786757,0 -17.720497,1.590582 -17.720497,3.552661z"/>
     </g>
    </g>
    <g id="g5073">
     <g transform="matrix(6.0838746,0,0,6.0838746,1091.0443,-460.16407) " id="g4084">
      <path fill="#f21d1d" stroke="#000000" stroke-width="1.805" stroke-miterlimit="4" d="m-166.567212,181.523266l0,6.47595c0.00001,3.11611 11.47612,5.64221 25.63263,5.64221c14.1565,0 25.63262,-2.5261 25.63262,-5.64221l0,-6.47595l-51.26525,0" id="path4023"/>
      <path fill="#f21d1d" stroke="#000000" stroke-width="2.242981" stroke-miterlimit="4" stroke-dashoffset="0" d="m-166.567212,181.523264c0,3.116109 11.47612,5.642214 25.63262,5.642214c14.15651,0 25.63262,-2.526105 25.63262,-5.642214c0,-3.116102 -11.47611,-5.642207 -25.63262,-5.642207c-14.1565,0 -25.63262,2.526105 -25.63262,5.642207z" id="path4019"/>
      <path fill="#f21d1d" stroke="#000000" stroke-width="0.804733px" d="m-161.361512,184.932216l-0.0353,6.4657" id="path4036"/>
      <path fill="#f21d1d" stroke="#000000" stroke-width="0.804733px" d="m-153.572222,186.433196l-0.004,6.29594" id="path4040"/>
      <path fill="#f21d1d" stroke="#000000" stroke-width="0.804733px" d="m-146.376982,187.038046l0.0628,6.47891" id="path4042"/>
      <path fill="#f21d1d" stroke="#000000" stroke-width="0.804733px" d="m-140.934592,187.165476l0.00001,6.47595l0,0" id="path4044"/>
      <path fill="#f21d1d" stroke="#000000" stroke-width="0.804733px" d="m-136.217292,187.070136l0.089,6.47227" id="path4046"/>
      <path fill="#f21d1d" stroke="#000000" stroke-width="0.804733px" d="m-132.122282,186.823196l0.0283,6.34071" id="path4048"/>
      <path fill="#f21d1d" stroke="#000000" stroke-width="0.804733px" d="m-128.591312,186.469416l0.0243,6.434" id="path4050"/>
      <path fill="#f21d1d" stroke="#000000" stroke-width="0.804733px" d="m-125.790672,186.063956l-0.0429,6.49486" id="path4052"/>
      <path fill="#f21d1d" d="m-124.076492,192.252986l0.0587,-6.76505l7.97706,-3.52708l0.80357,1.15641l-0.17857,5.31953l-0.625,0.69385l-0.89286,0.98296l-7.1429,2.13938z" id="path4056"/>
      <path fill="#f21d1d" stroke="#000000" stroke-miterlimit="4" stroke-dashoffset="0" id="path4058" d="m-158.655079,181.523266c0,1.962083 7.93374,3.552666 17.720497,3.552666c9.786764,0 17.720497,-1.590582 17.720497,-3.552666c0,-1.962079 -7.933734,-3.552661 -17.720497,-3.552661c-9.786757,0 -17.720497,1.590582 -17.720497,3.552661z"/>
     </g>
     <g transform="matrix(6.0838746,0,0,6.0838746,1091.0443,-508.83502) " id="g4098">
      <path fill="#f21d1d" stroke="#000000" stroke-width="1.805" stroke-miterlimit="4" id="path4100" d="m-166.567212,181.523266l0,6.47595c0.00001,3.11611 11.47612,5.64221 25.63263,5.64221c14.1565,0 25.63262,-2.5261 25.63262,-5.64221l0,-6.47595l-51.26525,0"/>
      <path fill="#f21d1d" stroke="#000000" stroke-width="2.242981" stroke-miterlimit="4" stroke-dashoffset="0" id="path4102" d="m-166.567212,181.523264c0,3.116109 11.47612,5.642214 25.63262,5.642214c14.15651,0 25.63262,-2.526105 25.63262,-5.642214c0,-3.116102 -11.47611,-5.642207 -25.63262,-5.642207c-14.1565,0 -25.63262,2.526105 -25.63262,5.642207z"/>
      <path fill="#f21d1d" stroke="#000000" stroke-width="0.804733px" id="path4104" d="m-161.361512,184.932216l-0.0353,6.4657"/>
      <path fill="#f21d1d" stroke="#000000" stroke-width="0.804733px" id="path4106" d="m-153.572222,186.433196l-0.004,6.29594"/>
      <path fill="#f21d1d" stroke="#000000" stroke-width="0.804733px" id="path4108" d="m-146.376982,187.038046l0.0628,6.47891"/>
      <path fill="#f21d1d" stroke="#000000" stroke-width="0.804733px" id="path4110" d="m-140.934592,187.165476l0.00001,6.47595l0,0"/>
      <path fill="#f21d1d" stroke="#000000" stroke-width="0.804733px" id="path4112" d="m-136.217292,187.070136l0.089,6.47227"/>
      <path fill="#f21d1d" stroke="#000000" stroke-width="0.804733px" id="path4114" d="m-132.122282,186.823196l0.0283,6.34071"/>
      <path fill="#f21d1d" stroke="#000000" stroke-width="0.804733px" id="path4116" d="m-128.591312,186.469416l0.0243,6.434"/>
      <path fill="#f21d1d" stroke="#000000" stroke-width="0.804733px" id="path4118" d="m-125.790672,186.063956l-0.0429,6.49486"/>
      <path fill="#f21d1d" id="path4120" d="m-124.076492,192.252986l0.0587,-6.76505l7.97706,-3.52708l0.80357,1.15641l-0.17857,5.31953l-0.625,0.69385l-0.89286,0.98296l-7.1429,2.13938z"/>
      <path fill="#f21d1d" stroke="#000000" stroke-miterlimit="4" stroke-dashoffset="0" d="m-158.655079,181.523266c0,1.962083 7.93374,3.552666 17.720497,3.552666c9.786764,0 17.720497,-1.590582 17.720497,-3.552666c0,-1.962079 -7.933734,-3.552661 -17.720497,-3.552661c-9.786757,0 -17.720497,1.590582 -17.720497,3.552661z" id="path4122"/>
     </g>
     <g id="g4124" transform="matrix(6.0838746,0,0,6.0838746,1103.212,-557.50603) ">
      <path fill="#f21d1d" stroke="#000000" stroke-width="1.805" stroke-miterlimit="4" d="m-166.567212,181.523266l0,6.47595c0.00001,3.11611 11.47612,5.64221 25.63263,5.64221c14.1565,0 25.63262,-2.5261 25.63262,-5.64221l0,-6.47595l-51.26525,0" id="path4126"/>
      <path fill="#f21d1d" stroke="#000000" stroke-width="2.242981" stroke-miterlimit="4" stroke-dashoffset="0" d="m-166.567212,181.523264c0,3.116109 11.47612,5.642214 25.63262,5.642214c14.15651,0 25.63262,-2.526105 25.63262,-5.642214c0,-3.116102 -11.47611,-5.642207 -25.63262,-5.642207c-14.1565,0 -25.63262,2.526105 -25.63262,5.642207z" id="path4128"/>
      <path fill="#f21d1d" stroke="#000000" stroke-width="0.804733px" d="m-161.361512,184.932216l-0.0353,6.4657" id="path4130"/>
      <path fill="#f21d1d" stroke="#000000" stroke-width="0.804733px" d="m-153.572222,186.433196l-0.004,6.29594" id="path4132"/>
      <path fill="#f21d1d" stroke="#000000" stroke-width="0.804733px" d="m-146.376982,187.038046l0.0628,6.47891" id="path4134"/>
      <path fill="#f21d1d" stroke="#000000" stroke-width="0.804733px" d="m-140.934592,187.165476l0.00001,6.47595l0,0" id="path4136"/>
      <path fill="#f21d1d" stroke="#000000" stroke-width="0.804733px" d="m-136.217292,187.070136l0.089,6.47227" id="path4138"/>
      <path fill="#f21d1d" stroke="#000000" stroke-width="0.804733px" d="m-132.122282,186.823196l0.0283,6.34071" id="path4140"/>
      <path fill="#f21d1d" stroke="#000000" stroke-width="0.804733px" d="m-128.591312,186.469416l0.0243,6.434" id="path4142"/>
      <path fill="#f21d1d" stroke="#000000" stroke-width="0.804733px" d="m-125.790672,186.063956l-0.0429,6.49486" id="path4144"/>
      <path fill="#f21d1d" d="m-124.076492,192.252986l0.0587,-6.76505l7.97706,-3.52708l0.80357,1.15641l-0.17857,5.31953l-0.625,0.69385l-0.89286,0.98296l-7.1429,2.13938z" id="path4146"/>
      <path fill="#f21d1d" stroke="#000000" stroke-miterlimit="4" stroke-dashoffset="0" id="path4148" d="m-158.655079,181.523266c0,1.962083 7.93374,3.552666 17.720497,3.552666c9.786764,0 17.720497,-1.590582 17.720497,-3.552666c0,-1.962079 -7.933734,-3.552661 -17.720497,-3.552661c-9.786757,0 -17.720497,1.590582 -17.720497,3.552661z"/>
     </g>
     <g id="g4150" transform="matrix(6.0838746,0,0,6.0838746,1115.3798,-606.17701) ">
      <path fill="#f21d1d" stroke="#000000" stroke-width="1.805" stroke-miterlimit="4" id="path4152" d="m-166.567212,181.523266l0,6.47595c0.00001,3.11611 11.47612,5.64221 25.63263,5.64221c14.1565,0 25.63262,-2.5261 25.63262,-5.64221l0,-6.47595l-51.26525,0"/>
      <path fill="#f21d1d" stroke="#000000" stroke-width="2.242981" stroke-miterlimit="4" stroke-dashoffset="0" id="path4154" d="m-166.567212,181.523264c0,3.116109 11.47612,5.642214 25.63262,5.642214c14.15651,0 25.63262,-2.526105 25.63262,-5.642214c0,-3.116102 -11.47611,-5.642207 -25.63262,-5.642207c-14.1565,0 -25.63262,2.526105 -25.63262,5.642207z"/>
      <path fill="#f21d1d" stroke="#000000" stroke-width="0.804733px" id="path4156" d="m-161.361512,184.932216l-0.0353,6.4657"/>
      <path fill="#f21d1d" stroke="#000000" stroke-width="0.804733px" id="path4158" d="m-153.572222,186.433196l-0.004,6.29594"/>
      <path fill="#f21d1d" stroke="#000000" stroke-width="0.804733px" id="path4160" d="m-146.376982,187.038046l0.0628,6.47891"/>
      <path fill="#f21d1d" stroke="#000000" stroke-width="0.804733px" id="path4162" d="m-140.934592,187.165476l0.00001,6.47595l0,0"/>
      <path fill="#f21d1d" stroke="#000000" stroke-width="0.804733px" id="path4164" d="m-136.217292,187.070136l0.089,6.47227"/>
      <path fill="#f21d1d" stroke="#000000" stroke-width="0.804733px" id="path4166" d="m-132.122282,186.823196l0.0283,6.34071"/>
      <path fill="#f21d1d" stroke="#000000" stroke-width="0.804733px" id="path4168" d="m-128.591312,186.469416l0.0243,6.434"/>
      <path fill="#f21d1d" stroke="#000000" stroke-width="0.804733px" id="path4170" d="m-125.790672,186.063956l-0.0429,6.49486"/>
      <path fill="#f21d1d" id="path4172" d="m-124.076492,192.252986l0.0587,-6.76505l7.97706,-3.52708l0.80357,1.15641l-0.17857,5.31953l-0.625,0.69385l-0.89286,0.98296l-7.1429,2.13938z"/>
      <path fill="#f21d1d" stroke="#000000" stroke-miterlimit="4" stroke-dashoffset="0" d="m-158.655079,181.523266c0,1.962083 7.93374,3.552666 17.720497,3.552666c9.786764,0 17.720497,-1.590582 17.720497,-3.552666c0,-1.962079 -7.933734,-3.552661 -17.720497,-3.552661c-9.786757,0 -17.720497,1.590582 -17.720497,3.552661z" id="path4174"/>
     </g>
     <g id="g4176" transform="matrix(6.0838746,0,0,6.0838746,1091.0443,-654.84801) ">
      <path fill="#f21d1d" stroke="#000000" stroke-width="1.805" stroke-miterlimit="4" d="m-166.567212,181.523266l0,6.47595c0.00001,3.11611 11.47612,5.64221 25.63263,5.64221c14.1565,0 25.63262,-2.5261 25.63262,-5.64221l0,-6.47595l-51.26525,0" id="path4178"/>
      <path fill="#f21d1d" stroke="#000000" stroke-width="2.242981" stroke-miterlimit="4" stroke-dashoffset="0" d="m-166.567212,181.523264c0,3.116109 11.47612,5.642214 25.63262,5.642214c14.15651,0 25.63262,-2.526105 25.63262,-5.642214c0,-3.116102 -11.47611,-5.642207 -25.63262,-5.642207c-14.1565,0 -25.63262,2.526105 -25.63262,5.642207z" id="path4180"/>
      <path fill="#f21d1d" stroke="#000000" stroke-width="0.804733px" d="m-161.361512,184.932216l-0.0353,6.4657" id="path4182"/>
      <path fill="#f21d1d" stroke="#000000" stroke-width="0.804733px" d="m-153.572222,186.433196l-0.004,6.29594" id="path4184"/>
      <path fill="#f21d1d" stroke="#000000" stroke-width="0.804733px" d="m-146.376982,187.038046l0.0628,6.47891" id="path4186"/>
      <path fill="#f21d1d" stroke="#000000" stroke-width="0.804733px" d="m-140.934592,187.165476l0.00001,6.47595l0,0" id="path4188"/>
      <path fill="#f21d1d" stroke="#000000" stroke-width="0.804733px" d="m-136.217292,187.070136l0.089,6.47227" id="path4190"/>
      <path fill="#f21d1d" stroke="#000000" stroke-width="0.804733px" d="m-132.122282,186.823196l0.0283,6.34071" id="path4192"/>
      <path fill="#f21d1d" stroke="#000000" stroke-width="0.804733px" d="m-128.591312,186.469416l0.0243,6.434" id="path4194"/>
      <path fill="#f21d1d" stroke="#000000" stroke-width="0.804733px" d="m-125.790672,186.063956l-0.0429,6.49486" id="path4196"/>
      <path fill="#f21d1d" d="m-124.076492,192.252986l0.0587,-6.76505l7.97706,-3.52708l0.80357,1.15641l-0.17857,5.31953l-0.625,0.69385l-0.89286,0.98296l-7.1429,2.13938z" id="path4198"/>
      <path fill="#f21d1d" stroke="#000000" stroke-miterlimit="4" stroke-dashoffset="0" id="path4200" d="m-158.655079,181.523266c0,1.962083 7.93374,3.552666 17.720497,3.552666c9.786764,0 17.720497,-1.590582 17.720497,-3.552666c0,-1.962079 -7.933734,-3.552661 -17.720497,-3.552661c-9.786757,0 -17.720497,1.590582 -17.720497,3.552661z"/>
     </g>
     <g transform="matrix(6.0838746,0,0,6.0838746,1103.212,-703.51902) " id="g4202">
      <path fill="#f21d1d" stroke="#000000" stroke-width="1.805" stroke-miterlimit="4" id="path4204" d="m-166.567212,181.523266l0,6.47595c0.00001,3.11611 11.47612,5.64221 25.63263,5.64221c14.1565,0 25.63262,-2.5261 25.63262,-5.64221l0,-6.47595l-51.26525,0"/>
      <path fill="#f21d1d" stroke="#000000" stroke-width="2.242981" stroke-miterlimit="4" stroke-dashoffset="0" id="path4206" d="m-166.567212,181.523264c0,3.116109 11.47612,5.642214 25.63262,5.642214c14.15651,0 25.63262,-2.526105 25.63262,-5.642214c0,-3.116102 -11.47611,-5.642207 -25.63262,-5.642207c-14.1565,0 -25.63262,2.526105 -25.63262,5.642207z"/>
      <path fill="#f21d1d" stroke="#000000" stroke-width="0.804733px" id="path4208" d="m-161.361512,184.932216l-0.0353,6.4657"/>
      <path fill="#f21d1d" stroke="#000000" stroke-width="0.804733px" id="path4210" d="m-153.572222,186.433196l-0.004,6.29594"/>
      <path fill="#f21d1d" stroke="#000000" stroke-width="0.804733px" id="path4212" d="m-146.376982,187.038046l0.0628,6.47891"/>
      <path fill="#f21d1d" stroke="#000000" stroke-width="0.804733px" id="path4214" d="m-140.934592,187.165476l0.00001,6.47595l0,0"/>
      <path fill="#f21d1d" stroke="#000000" stroke-width="0.804733px" id="path4216" d="m-136.217292,187.070136l0.089,6.47227"/>
      <path fill="#f21d1d" stroke="#000000" stroke-width="0.804733px" id="path4218" d="m-132.122282,186.823196l0.0283,6.34071"/>
      <path fill="#f21d1d" stroke="#000000" stroke-width="0.804733px" id="path4220" d="m-128.591312,186.469416l0.0243,6.434"/>
      <path fill="#f21d1d" stroke="#000000" stroke-width="0.804733px" id="path4222" d="m-125.790672,186.063956l-0.0429,6.49486"/>
      <path fill="#f21d1d" id="path4224" d="m-124.076492,192.252986l0.0587,-6.76505l7.97706,-3.52708l0.80357,1.15641l-0.17857,5.31953l-0.625,0.69385l-0.89286,0.98296l-7.1429,2.13938z"/>
      <path fill="#f21d1d" stroke="#000000" stroke-miterlimit="4" stroke-dashoffset="0" d="m-158.655079,181.523266c0,1.962083 7.93374,3.552666 17.720497,3.552666c9.786764,0 17.720497,-1.590582 17.720497,-3.552666c0,-1.962079 -7.933734,-3.552661 -17.720497,-3.552661c-9.786757,0 -17.720497,1.590582 -17.720497,3.552661z" id="path4226"/>
     </g>
     <g id="g4228" transform="matrix(6.0838746,0,0,6.0838746,1091.0443,-752.19) ">
      <path fill="#f21d1d" stroke="#000000" stroke-width="1.805" stroke-miterlimit="4" id="path4230" d="m-166.567212,181.523266l0,6.47595c0.00001,3.11611 11.47612,5.64221 25.63263,5.64221c14.1565,0 25.63262,-2.5261 25.63262,-5.64221l0,-6.47595l-51.26525,0"/>
      <path fill="#f21d1d" stroke="#000000" stroke-width="2.242981" stroke-miterlimit="4" stroke-dashoffset="0" id="path4232" d="m-166.567212,181.523264c0,3.116109 11.47612,5.642214 25.63262,5.642214c14.15651,0 25.63262,-2.526105 25.63262,-5.642214c0,-3.116102 -11.47611,-5.642207 -25.63262,-5.642207c-14.1565,0 -25.63262,2.526105 -25.63262,5.642207z"/>
      <path fill="#f21d1d" stroke="#000000" stroke-width="0.804733px" id="path4234" d="m-161.361512,184.932216l-0.0353,6.4657"/>
      <path fill="#f21d1d" stroke="#000000" stroke-width="0.804733px" id="path4236" d="m-153.572222,186.433196l-0.004,6.29594"/>
      <path fill="#f21d1d" stroke="#000000" stroke-width="0.804733px" id="path4238" d="m-146.376982,187.038046l0.0628,6.47891"/>
      <path fill="#f21d1d" stroke="#000000" stroke-width="0.804733px" id="path4240" d="m-140.934592,187.165476l0.00001,6.47595l0,0"/>
      <path fill="#f21d1d" stroke="#000000" stroke-width="0.804733px" id="path4242" d="m-136.217292,187.070136l0.089,6.47227"/>
      <path fill="#f21d1d" stroke="#000000" stroke-width="0.804733px" id="path4244" d="m-132.122282,186.823196l0.0283,6.34071"/>
      <path fill="#f21d1d" stroke="#000000" stroke-width="0.804733px" id="path4246" d="m-128.591312,186.469416l0.0243,6.434"/>
      <path fill="#f21d1d" stroke="#000000" stroke-width="0.804733px" id="path4248" d="m-125.790672,186.063956l-0.0429,6.49486"/>
      <path fill="#f21d1d" id="path4250" d="m-124.076492,192.252986l0.0587,-6.76505l7.97706,-3.52708l0.80357,1.15641l-0.17857,5.31953l-0.625,0.69385l-0.89286,0.98296l-7.1429,2.13938z"/>
      <path fill="#f21d1d" stroke="#000000" stroke-miterlimit="4" stroke-dashoffset="0" d="m-158.655079,181.523266c0,1.962083 7.93374,3.552666 17.720497,3.552666c9.786764,0 17.720497,-1.590582 17.720497,-3.552666c0,-1.962079 -7.933734,-3.552661 -17.720497,-3.552661c-9.786757,0 -17.720497,1.590582 -17.720497,3.552661z" id="path4252"/>
     </g>
     <g id="g4254" transform="matrix(6.0838746,0,0,6.0838746,1091.0443,-800.86101) ">
      <path fill="#f21d1d" stroke="#000000" stroke-width="1.805" stroke-miterlimit="4" d="m-166.567212,181.523266l0,6.47595c0.00001,3.11611 11.47612,5.64221 25.63263,5.64221c14.1565,0 25.63262,-2.5261 25.63262,-5.64221l0,-6.47595l-51.26525,0" id="path4256"/>
      <path fill="#f21d1d" stroke="#000000" stroke-width="2.242981" stroke-miterlimit="4" stroke-dashoffset="0" d="m-166.567212,181.523264c0,3.116109 11.47612,5.642214 25.63262,5.642214c14.15651,0 25.63262,-2.526105 25.63262,-5.642214c0,-3.116102 -11.47611,-5.642207 -25.63262,-5.642207c-14.1565,0 -25.63262,2.526105 -25.63262,5.642207z" id="path4258"/>
      <path fill="#f21d1d" stroke="#000000" stroke-width="0.804733px" d="m-161.361512,184.932216l-0.0353,6.4657" id="path4260"/>
      <path fill="#f21d1d" stroke="#000000" stroke-width="0.804733px" d="m-153.572222,186.433196l-0.004,6.29594" id="path4262"/>
      <path fill="#f21d1d" stroke="#000000" stroke-width="0.804733px" d="m-146.376982,187.038046l0.0628,6.47891" id="path4264"/>
      <path fill="#f21d1d" stroke="#000000" stroke-width="0.804733px" d="m-140.934592,187.165476l0.00001,6.47595l0,0" id="path4266"/>
      <path fill="#f21d1d" stroke="#000000" stroke-width="0.804733px" d="m-136.217292,187.070136l0.089,6.47227" id="path4268"/>
      <path fill="#f21d1d" stroke="#000000" stroke-width="0.804733px" d="m-132.122282,186.823196l0.0283,6.34071" id="path4270"/>
      <path fill="#f21d1d" stroke="#000000" stroke-width="0.804733px" d="m-128.591312,186.469416l0.0243,6.434" id="path4272"/>
      <path fill="#f21d1d" stroke="#000000" stroke-width="0.804733px" d="m-125.790672,186.063956l-0.0429,6.49486" id="path4274"/>
      <path fill="#f21d1d" d="m-124.076492,192.252986l0.0587,-6.76505l7.97706,-3.52708l0.80357,1.15641l-0.17857,5.31953l-0.625,0.69385l-0.89286,0.98296l-7.1429,2.13938z" id="path4276"/>
      <path fill="#f21d1d" stroke="#000000" stroke-miterlimit="4" stroke-dashoffset="0" id="path4278" d="m-158.655079,181.523266c0,1.962083 7.93374,3.552666 17.720497,3.552666c9.786764,0 17.720497,-1.590582 17.720497,-3.552666c0,-1.962079 -7.933734,-3.552661 -17.720497,-3.552661c-9.786757,0 -17.720497,1.590582 -17.720497,3.552661z"/>
     </g>
     <g transform="matrix(6.0838746,0,0,6.0838746,1103.212,-849.532) " id="g4280">
      <path fill="#f21d1d" stroke="#000000" stroke-width="1.805" stroke-miterlimit="4" id="path4282" d="m-166.567212,181.523266l0,6.47595c0.00001,3.11611 11.47612,5.64221 25.63263,5.64221c14.1565,0 25.63262,-2.5261 25.63262,-5.64221l0,-6.47595l-51.26525,0"/>
      <path fill="#f21d1d" stroke="#000000" stroke-width="2.242981" stroke-miterlimit="4" stroke-dashoffset="0" id="path4284" d="m-166.567212,181.523264c0,3.116109 11.47612,5.642214 25.63262,5.642214c14.15651,0 25.63262,-2.526105 25.63262,-5.642214c0,-3.116102 -11.47611,-5.642207 -25.63262,-5.642207c-14.1565,0 -25.63262,2.526105 -25.63262,5.642207z"/>
      <path fill="#f21d1d" stroke="#000000" stroke-width="0.804733px" id="path4286" d="m-161.361512,184.932216l-0.0353,6.4657"/>
      <path fill="#f21d1d" stroke="#000000" stroke-width="0.804733px" id="path4288" d="m-153.572222,186.433196l-0.004,6.29594"/>
      <path fill="#f21d1d" stroke="#000000" stroke-width="0.804733px" id="path4290" d="m-146.376982,187.038046l0.0628,6.47891"/>
      <path fill="#f21d1d" stroke="#000000" stroke-width="0.804733px" id="path4292" d="m-140.934592,187.165476l0.00001,6.47595l0,0"/>
      <path fill="#f21d1d" stroke="#000000" stroke-width="0.804733px" id="path4294" d="m-136.217292,187.070136l0.089,6.47227"/>
      <path fill="#f21d1d" stroke="#000000" stroke-width="0.804733px" id="path4296" d="m-132.122282,186.823196l0.0283,6.34071"/>
      <path fill="#f21d1d" stroke="#000000" stroke-width="0.804733px" id="path4298" d="m-128.591312,186.469416l0.0243,6.434"/>
      <path fill="#f21d1d" stroke="#000000" stroke-width="0.804733px" id="path4300" d="m-125.790672,186.063956l-0.0429,6.49486"/>
      <path fill="#f21d1d" id="path4302" d="m-124.076492,192.252986l0.0587,-6.76505l7.97706,-3.52708l0.80357,1.15641l-0.17857,5.31953l-0.625,0.69385l-0.89286,0.98296l-7.1429,2.13938z"/>
      <path fill="#f21d1d" stroke="#000000" stroke-miterlimit="4" stroke-dashoffset="0" d="m-158.655079,181.523266c0,1.962083 7.93374,3.552666 17.720497,3.552666c9.786764,0 17.720497,-1.590582 17.720497,-3.552666c0,-1.962079 -7.933734,-3.552661 -17.720497,-3.552661c-9.786757,0 -17.720497,1.590582 -17.720497,3.552661z" id="path4304"/>
     </g>
     <g transform="matrix(6.0838746,0,0,6.0838746,1091.0443,-898.20299) " id="g4306">
      <path fill="#f21d1d" stroke="#000000" stroke-width="1.805" stroke-miterlimit="4" d="m-166.567212,181.523266l0,6.47595c0.00001,3.11611 11.47612,5.64221 25.63263,5.64221c14.1565,0 25.63262,-2.5261 25.63262,-5.64221l0,-6.47595l-51.26525,0" id="path4308"/>
      <path fill="#f21d1d" stroke="#000000" stroke-width="2.242981" stroke-miterlimit="4" stroke-dashoffset="0" d="m-166.567212,181.523264c0,3.116109 11.47612,5.642214 25.63262,5.642214c14.15651,0 25.63262,-2.526105 25.63262,-5.642214c0,-3.116102 -11.47611,-5.642207 -25.63262,-5.642207c-14.1565,0 -25.63262,2.526105 -25.63262,5.642207z" id="path4310"/>
      <path fill="#f21d1d" stroke="#000000" stroke-width="0.804733px" d="m-161.361512,184.932216l-0.0353,6.4657" id="path4312"/>
      <path fill="#f21d1d" stroke="#000000" stroke-width="0.804733px" d="m-153.572222,186.433196l-0.004,6.29594" id="path4314"/>
      <path fill="#f21d1d" stroke="#000000" stroke-width="0.804733px" d="m-146.376982,187.038046l0.0628,6.47891" id="path4316"/>
      <path fill="#f21d1d" stroke="#000000" stroke-width="0.804733px" d="m-140.934592,187.165476l0.00001,6.47595l0,0" id="path4318"/>
      <path fill="#f21d1d" stroke="#000000" stroke-width="0.804733px" d="m-136.217292,187.070136l0.089,6.47227" id="path4320"/>
      <path fill="#f21d1d" stroke="#000000" stroke-width="0.804733px" d="m-132.122282,186.823196l0.0283,6.34071" id="path4322"/>
      <path fill="#f21d1d" stroke="#000000" stroke-width="0.804733px" d="m-128.591312,186.469416l0.0243,6.434" id="path4324"/>
      <path fill="#f21d1d" stroke="#000000" stroke-width="0.804733px" d="m-125.790672,186.063956l-0.0429,6.49486" id="path4326"/>
      <path fill="#f21d1d" d="m-124.076492,192.252986l0.0587,-6.76505l7.97706,-3.52708l0.80357,1.15641l-0.17857,5.31953l-0.625,0.69385l-0.89286,0.98296l-7.1429,2.13938z" id="path4328"/>
      <path fill="#f21d1d" stroke="#000000" stroke-miterlimit="4" stroke-dashoffset="0" id="path4330" d="m-158.655079,181.523266c0,1.962083 7.93374,3.552666 17.720497,3.552666c9.786764,0 17.720497,-1.590582 17.720497,-3.552666c0,-1.962079 -7.933734,-3.552661 -17.720497,-3.552661c-9.786757,0 -17.720497,1.590582 -17.720497,3.552661z"/>
     </g>
     <g transform="matrix(6.0838746,0,0,6.0838746,1091.0443,-946.87399) " id="g4332">
      <path fill="#f21d1d" stroke="#000000" stroke-width="1.805" stroke-miterlimit="4" id="path4334" d="m-166.567212,181.523266l0,6.47595c0.00001,3.11611 11.47612,5.64221 25.63263,5.64221c14.1565,0 25.63262,-2.5261 25.63262,-5.64221l0,-6.47595l-51.26525,0"/>
      <path fill="#f21d1d" stroke="#000000" stroke-width="2.242981" stroke-miterlimit="4" stroke-dashoffset="0" id="path4336" d="m-166.567212,181.523264c0,3.116109 11.47612,5.642214 25.63262,5.642214c14.15651,0 25.63262,-2.526105 25.63262,-5.642214c0,-3.116102 -11.47611,-5.642207 -25.63262,-5.642207c-14.1565,0 -25.63262,2.526105 -25.63262,5.642207z"/>
      <path fill="#f21d1d" stroke="#000000" stroke-width="0.804733px" id="path4338" d="m-161.361512,184.932216l-0.0353,6.4657"/>
      <path fill="#f21d1d" stroke="#000000" stroke-width="0.804733px" id="path4340" d="m-153.572222,186.433196l-0.004,6.29594"/>
      <path fill="#f21d1d" stroke="#000000" stroke-width="0.804733px" id="path4342" d="m-146.376982,187.038046l0.0628,6.47891"/>
      <path fill="#f21d1d" stroke="#000000" stroke-width="0.804733px" id="path4344" d="m-140.934592,187.165476l0.00001,6.47595l0,0"/>
      <path fill="#f21d1d" stroke="#000000" stroke-width="0.804733px" id="path4346" d="m-136.217292,187.070136l0.089,6.47227"/>
      <path fill="#f21d1d" stroke="#000000" stroke-width="0.804733px" id="path4348" d="m-132.122282,186.823196l0.0283,6.34071"/>
      <path fill="#f21d1d" stroke="#000000" stroke-width="0.804733px" id="path4350" d="m-128.591312,186.469416l0.0243,6.434"/>
      <path fill="#f21d1d" stroke="#000000" stroke-width="0.804733px" id="path4352" d="m-125.790672,186.063956l-0.0429,6.49486"/>
      <path fill="#f21d1d" id="path4354" d="m-124.076492,192.252986l0.0587,-6.76505l7.97706,-3.52708l0.80357,1.15641l-0.17857,5.31953l-0.625,0.69385l-0.89286,0.98296l-7.1429,2.13938z"/>
      <path fill="#f21d1d" stroke="#000000" stroke-miterlimit="4" stroke-dashoffset="0" d="m-158.655079,181.523266c0,1.962083 7.93374,3.552666 17.720497,3.552666c9.786764,0 17.720497,-1.590582 17.720497,-3.552666c0,-1.962079 -7.933734,-3.552661 -17.720497,-3.552661c-9.786757,0 -17.720497,1.590582 -17.720497,3.552661z" id="path4356"/>
     </g>
     <g id="g4358" transform="matrix(6.0838746,0,0,6.0838746,1103.212,-995.54499) ">
      <path fill="#f21d1d" stroke="#000000" stroke-width="1.805" stroke-miterlimit="4" d="m-166.567212,181.523266l0,6.47595c0.00001,3.11611 11.47612,5.64221 25.63263,5.64221c14.1565,0 25.63262,-2.5261 25.63262,-5.64221l0,-6.47595l-51.26525,0" id="path4360"/>
      <path fill="#f21d1d" stroke="#000000" stroke-width="2.242981" stroke-miterlimit="4" stroke-dashoffset="0" d="m-166.567212,181.523264c0,3.116109 11.47612,5.642214 25.63262,5.642214c14.15651,0 25.63262,-2.526105 25.63262,-5.642214c0,-3.116102 -11.47611,-5.642207 -25.63262,-5.642207c-14.1565,0 -25.63262,2.526105 -25.63262,5.642207z" id="path4362"/>
      <path fill="#f21d1d" stroke="#000000" stroke-width="0.804733px" d="m-161.361512,184.932216l-0.0353,6.4657" id="path4364"/>
      <path fill="#f21d1d" stroke="#000000" stroke-width="0.804733px" d="m-153.572222,186.433196l-0.004,6.29594" id="path4366"/>
      <path fill="#f21d1d" stroke="#000000" stroke-width="0.804733px" d="m-146.376982,187.038046l0.0628,6.47891" id="path4368"/>
      <path fill="#f21d1d" stroke="#000000" stroke-width="0.804733px" d="m-140.934592,187.165476l0.00001,6.47595l0,0" id="path4370"/>
      <path fill="#f21d1d" stroke="#000000" stroke-width="0.804733px" d="m-136.217292,187.070136l0.089,6.47227" id="path4372"/>
      <path fill="#f21d1d" stroke="#000000" stroke-width="0.804733px" d="m-132.122282,186.823196l0.0283,6.34071" id="path4374"/>
      <path fill="#f21d1d" stroke="#000000" stroke-width="0.804733px" d="m-128.591312,186.469416l0.0243,6.434" id="path4376"/>
      <path fill="#f21d1d" stroke="#000000" stroke-width="0.804733px" d="m-125.790672,186.063956l-0.0429,6.49486" id="path4378"/>
      <path fill="#f21d1d" d="m-124.076492,192.252986l0.0587,-6.76505l7.97706,-3.52708l0.80357,1.15641l-0.17857,5.31953l-0.625,0.69385l-0.89286,0.98296l-7.1429,2.13938z" id="path4380"/>
      <path fill="#f21d1d" stroke="#000000" stroke-miterlimit="4" stroke-dashoffset="0" id="path4382" d="m-158.655079,181.523266c0,1.962083 7.93374,3.552666 17.720497,3.552666c9.786764,0 17.720497,-1.590582 17.720497,-3.552666c0,-1.962079 -7.933734,-3.552661 -17.720497,-3.552661c-9.786757,0 -17.720497,1.590582 -17.720497,3.552661z"/>
     </g>
    </g>
    <g id="g4954">
     <g id="g4384" transform="matrix(6.0838746,0,0,6.0838746,1370.9025,-350.6543) ">
      <path fill="#f21d1d" stroke="#000000" stroke-width="1.805" stroke-miterlimit="4" id="path4386" d="m-174.08122,184.810644l0,6.47595c0.00001,3.11611 11.47612,5.64221 25.63263,5.64221c14.1565,0 25.63262,-2.5261 25.63262,-5.64221l0,-6.47595l-51.26525,0"/>
      <path fill="#f21d1d" stroke="#000000" stroke-width="2.242981" stroke-miterlimit="4" stroke-dashoffset="0" id="path4388" d="m-174.08122,184.810643c0,3.116109 11.47612,5.642214 25.63262,5.642214c14.15651,0 25.63262,-2.526105 25.63262,-5.642214c0,-3.116102 -11.47611,-5.642207 -25.63262,-5.642207c-14.1565,0 -25.63262,2.526105 -25.63262,5.642207z"/>
      <path fill="#f21d1d" stroke="#000000" stroke-width="0.804733px" id="path4390" d="m-168.87552,188.219594l-0.0353,6.4657"/>
      <path fill="#f21d1d" stroke="#000000" stroke-width="0.804733px" id="path4392" d="m-161.08623,189.720574l-0.004,6.29594"/>
      <path fill="#f21d1d" stroke="#000000" stroke-width="0.804733px" id="path4394" d="m-153.89099,190.325424l0.0628,6.47891"/>
      <path fill="#f21d1d" stroke="#000000" stroke-width="0.804733px" id="path4396" d="m-148.4486,190.452854l0.00001,6.47595l0,0"/>
      <path fill="#f21d1d" stroke="#000000" stroke-width="0.804733px" id="path4398" d="m-143.7313,190.357514l0.089,6.47227"/>
      <path fill="#f21d1d" stroke="#000000" stroke-width="0.804733px" id="path4400" d="m-139.63629,190.110574l0.0283,6.34071"/>
      <path fill="#f21d1d" stroke="#000000" stroke-width="0.804733px" id="path4402" d="m-136.10532,189.756794l0.0243,6.434"/>
      <path fill="#f21d1d" stroke="#000000" stroke-width="0.804733px" id="path4404" d="m-133.30468,189.351334l-0.0429,6.49486"/>
      <path fill="#f21d1d" id="path4406" d="m-131.5905,195.540364l0.0587,-6.76505l7.97706,-3.52708l0.80357,1.15641l-0.17857,5.31953l-0.625,0.69385l-0.89286,0.98296l-7.1429,2.13938z"/>
      <path fill="#f21d1d" stroke="#000000" stroke-miterlimit="4" stroke-dashoffset="0" d="m-166.169088,184.810645c0,1.962083 7.93374,3.552666 17.720497,3.552666c9.786764,0 17.720497,-1.590582 17.720497,-3.552666c0,-1.962079 -7.933734,-3.552661 -17.720497,-3.552661c-9.786757,0 -17.720497,1.590582 -17.720497,3.552661z" id="path4408"/>
     </g>
     <g id="g4410" transform="matrix(6.0838746,0,0,6.0838746,1383.0703,-399.32528) ">
      <path fill="#f21d1d" stroke="#000000" stroke-width="1.805" stroke-miterlimit="4" d="m-174.08122,184.810644l0,6.47595c0.00001,3.11611 11.47612,5.64221 25.63263,5.64221c14.1565,0 25.63262,-2.5261 25.63262,-5.64221l0,-6.47595l-51.26525,0" id="path4412"/>
      <path fill="#f21d1d" stroke="#000000" stroke-width="2.242981" stroke-miterlimit="4" stroke-dashoffset="0" d="m-174.08122,184.810643c0,3.116109 11.47612,5.642214 25.63262,5.642214c14.15651,0 25.63262,-2.526105 25.63262,-5.642214c0,-3.116102 -11.47611,-5.642207 -25.63262,-5.642207c-14.1565,0 -25.63262,2.526105 -25.63262,5.642207z" id="path4414"/>
      <path fill="#f21d1d" stroke="#000000" stroke-width="0.804733px" d="m-168.87552,188.219594l-0.0353,6.4657" id="path4416"/>
      <path fill="#f21d1d" stroke="#000000" stroke-width="0.804733px" d="m-161.08623,189.720574l-0.004,6.29594" id="path4418"/>
      <path fill="#f21d1d" stroke="#000000" stroke-width="0.804733px" d="m-153.89099,190.325424l0.0628,6.47891" id="path4420"/>
      <path fill="#f21d1d" stroke="#000000" stroke-width="0.804733px" d="m-148.4486,190.452854l0.00001,6.47595l0,0" id="path4422"/>
      <path fill="#f21d1d" stroke="#000000" stroke-width="0.804733px" d="m-143.7313,190.357514l0.089,6.47227" id="path4424"/>
      <path fill="#f21d1d" stroke="#000000" stroke-width="0.804733px" d="m-139.63629,190.110574l0.0283,6.34071" id="path4426"/>
      <path fill="#f21d1d" stroke="#000000" stroke-width="0.804733px" d="m-136.10532,189.756794l0.0243,6.434" id="path4428"/>
      <path fill="#f21d1d" stroke="#000000" stroke-width="0.804733px" d="m-133.30468,189.351334l-0.0429,6.49486" id="path4430"/>
      <path fill="#f21d1d" d="m-131.5905,195.540364l0.0587,-6.76505l7.97706,-3.52708l0.80357,1.15641l-0.17857,5.31953l-0.625,0.69385l-0.89286,0.98296l-7.1429,2.13938z" id="path4432"/>
      <path fill="#f21d1d" stroke="#000000" stroke-miterlimit="4" stroke-dashoffset="0" id="path4434" d="m-166.169088,184.810645c0,1.962083 7.93374,3.552666 17.720497,3.552666c9.786764,0 17.720497,-1.590582 17.720497,-3.552666c0,-1.962079 -7.933734,-3.552661 -17.720497,-3.552661c-9.786757,0 -17.720497,1.590582 -17.720497,3.552661z"/>
     </g>
     <g transform="matrix(6.0838746,0,0,6.0838746,1383.0703,-447.99631) " id="g4436">
      <path fill="#f21d1d" stroke="#000000" stroke-width="1.805" stroke-miterlimit="4" id="path4438" d="m-174.08122,184.810644l0,6.47595c0.00001,3.11611 11.47612,5.64221 25.63263,5.64221c14.1565,0 25.63262,-2.5261 25.63262,-5.64221l0,-6.47595l-51.26525,0"/>
      <path fill="#f21d1d" stroke="#000000" stroke-width="2.242981" stroke-miterlimit="4" stroke-dashoffset="0" id="path4440" d="m-174.08122,184.810643c0,3.116109 11.47612,5.642214 25.63262,5.642214c14.15651,0 25.63262,-2.526105 25.63262,-5.642214c0,-3.116102 -11.47611,-5.642207 -25.63262,-5.642207c-14.1565,0 -25.63262,2.526105 -25.63262,5.642207z"/>
      <path fill="#f21d1d" stroke="#000000" stroke-width="0.804733px" id="path4442" d="m-168.87552,188.219594l-0.0353,6.4657"/>
      <path fill="#f21d1d" stroke="#000000" stroke-width="0.804733px" id="path4444" d="m-161.08623,189.720574l-0.004,6.29594"/>
      <path fill="#f21d1d" stroke="#000000" stroke-width="0.804733px" id="path4446" d="m-153.89099,190.325424l0.0628,6.47891"/>
      <path fill="#f21d1d" stroke="#000000" stroke-width="0.804733px" id="path4448" d="m-148.4486,190.452854l0.00001,6.47595l0,0"/>
      <path fill="#f21d1d" stroke="#000000" stroke-width="0.804733px" id="path4450" d="m-143.7313,190.357514l0.089,6.47227"/>
      <path fill="#f21d1d" stroke="#000000" stroke-width="0.804733px" id="path4452" d="m-139.63629,190.110574l0.0283,6.34071"/>
      <path fill="#f21d1d" stroke="#000000" stroke-width="0.804733px" id="path4454" d="m-136.10532,189.756794l0.0243,6.434"/>
      <path fill="#f21d1d" stroke="#000000" stroke-width="0.804733px" id="path4456" d="m-133.30468,189.351334l-0.0429,6.49486"/>
      <path fill="#f21d1d" id="path4458" d="m-131.5905,195.540364l0.0587,-6.76505l7.97706,-3.52708l0.80357,1.15641l-0.17857,5.31953l-0.625,0.69385l-0.89286,0.98296l-7.1429,2.13938z"/>
      <path fill="#f21d1d" stroke="#000000" stroke-miterlimit="4" stroke-dashoffset="0" d="m-166.169088,184.810645c0,1.962083 7.93374,3.552666 17.720497,3.552666c9.786764,0 17.720497,-1.590582 17.720497,-3.552666c0,-1.962079 -7.933734,-3.552661 -17.720497,-3.552661c-9.786757,0 -17.720497,1.590582 -17.720497,3.552661z" id="path4460"/>
     </g>
     <g transform="matrix(6.0838746,0,0,6.0838746,1370.9025,-496.66726) " id="g4462">
      <path fill="#f21d1d" stroke="#000000" stroke-width="1.805" stroke-miterlimit="4" d="m-174.08122,184.810644l0,6.47595c0.00001,3.11611 11.47612,5.64221 25.63263,5.64221c14.1565,0 25.63262,-2.5261 25.63262,-5.64221l0,-6.47595l-51.26525,0" id="path4464"/>
      <path fill="#f21d1d" stroke="#000000" stroke-width="2.242981" stroke-miterlimit="4" stroke-dashoffset="0" d="m-174.08122,184.810643c0,3.116109 11.47612,5.642214 25.63262,5.642214c14.15651,0 25.63262,-2.526105 25.63262,-5.642214c0,-3.116102 -11.47611,-5.642207 -25.63262,-5.642207c-14.1565,0 -25.63262,2.526105 -25.63262,5.642207z" id="path4466"/>
      <path fill="#f21d1d" stroke="#000000" stroke-width="0.804733px" d="m-168.87552,188.219594l-0.0353,6.4657" id="path4468"/>
      <path fill="#f21d1d" stroke="#000000" stroke-width="0.804733px" d="m-161.08623,189.720574l-0.004,6.29594" id="path4470"/>
      <path fill="#f21d1d" stroke="#000000" stroke-width="0.804733px" d="m-153.89099,190.325424l0.0628,6.47891" id="path4472"/>
      <path fill="#f21d1d" stroke="#000000" stroke-width="0.804733px" d="m-148.4486,190.452854l0.00001,6.47595l0,0" id="path4474"/>
      <path fill="#f21d1d" stroke="#000000" stroke-width="0.804733px" d="m-143.7313,190.357514l0.089,6.47227" id="path4476"/>
      <path fill="#f21d1d" stroke="#000000" stroke-width="0.804733px" d="m-139.63629,190.110574l0.0283,6.34071" id="path4478"/>
      <path fill="#f21d1d" stroke="#000000" stroke-width="0.804733px" d="m-136.10532,189.756794l0.0243,6.434" id="path4480"/>
      <path fill="#f21d1d" stroke="#000000" stroke-width="0.804733px" d="m-133.30468,189.351334l-0.0429,6.49486" id="path4482"/>
      <path fill="#f21d1d" d="m-131.5905,195.540364l0.0587,-6.76505l7.97706,-3.52708l0.80357,1.15641l-0.17857,5.31953l-0.625,0.69385l-0.89286,0.98296l-7.1429,2.13938z" id="path4484"/>
      <path fill="#f21d1d" stroke="#000000" stroke-miterlimit="4" stroke-dashoffset="0" id="path4486" d="m-166.169088,184.810645c0,1.962083 7.93374,3.552666 17.720497,3.552666c9.786764,0 17.720497,-1.590582 17.720497,-3.552666c0,-1.962079 -7.933734,-3.552661 -17.720497,-3.552661c-9.786757,0 -17.720497,1.590582 -17.720497,3.552661z"/>
     </g>
     <g transform="matrix(6.0838746,0,0,6.0838746,1383.0703,-545.33827) " id="g4488">
      <path fill="#f21d1d" stroke="#000000" stroke-width="1.805" stroke-miterlimit="4" id="path4490" d="m-174.08122,184.810644l0,6.47595c0.00001,3.11611 11.47612,5.64221 25.63263,5.64221c14.1565,0 25.63262,-2.5261 25.63262,-5.64221l0,-6.47595l-51.26525,0"/>
      <path fill="#f21d1d" stroke="#000000" stroke-width="2.242981" stroke-miterlimit="4" stroke-dashoffset="0" id="path4492" d="m-174.08122,184.810643c0,3.116109 11.47612,5.642214 25.63262,5.642214c14.15651,0 25.63262,-2.526105 25.63262,-5.642214c0,-3.116102 -11.47611,-5.642207 -25.63262,-5.642207c-14.1565,0 -25.63262,2.526105 -25.63262,5.642207z"/>
      <path fill="#f21d1d" stroke="#000000" stroke-width="0.804733px" id="path4494" d="m-168.87552,188.219594l-0.0353,6.4657"/>
      <path fill="#f21d1d" stroke="#000000" stroke-width="0.804733px" id="path4496" d="m-161.08623,189.720574l-0.004,6.29594"/>
      <path fill="#f21d1d" stroke="#000000" stroke-width="0.804733px" id="path4498" d="m-153.89099,190.325424l0.0628,6.47891"/>
      <path fill="#f21d1d" stroke="#000000" stroke-width="0.804733px" id="path4500" d="m-148.4486,190.452854l0.00001,6.47595l0,0"/>
      <path fill="#f21d1d" stroke="#000000" stroke-width="0.804733px" id="path4502" d="m-143.7313,190.357514l0.089,6.47227"/>
      <path fill="#f21d1d" stroke="#000000" stroke-width="0.804733px" id="path4504" d="m-139.63629,190.110574l0.0283,6.34071"/>
      <path fill="#f21d1d" stroke="#000000" stroke-width="0.804733px" id="path4506" d="m-136.10532,189.756794l0.0243,6.434"/>
      <path fill="#f21d1d" stroke="#000000" stroke-width="0.804733px" id="path4508" d="m-133.30468,189.351334l-0.0429,6.49486"/>
      <path fill="#f21d1d" id="path4510" d="m-131.5905,195.540364l0.0587,-6.76505l7.97706,-3.52708l0.80357,1.15641l-0.17857,5.31953l-0.625,0.69385l-0.89286,0.98296l-7.1429,2.13938z"/>
      <path fill="#f21d1d" stroke="#000000" stroke-miterlimit="4" stroke-dashoffset="0" d="m-166.169088,184.810645c0,1.962083 7.93374,3.552666 17.720497,3.552666c9.786764,0 17.720497,-1.590582 17.720497,-3.552666c0,-1.962079 -7.933734,-3.552661 -17.720497,-3.552661c-9.786757,0 -17.720497,1.590582 -17.720497,3.552661z" id="path4512"/>
     </g>
     <g id="g4514" transform="matrix(6.0838746,0,0,6.0838746,1395.238,-594.00928) ">
      <path fill="#f21d1d" stroke="#000000" stroke-width="1.805" stroke-miterlimit="4" d="m-174.08122,184.810644l0,6.47595c0.00001,3.11611 11.47612,5.64221 25.63263,5.64221c14.1565,0 25.63262,-2.5261 25.63262,-5.64221l0,-6.47595l-51.26525,0" id="path4516"/>
      <path fill="#f21d1d" stroke="#000000" stroke-width="2.242981" stroke-miterlimit="4" stroke-dashoffset="0" d="m-174.08122,184.810643c0,3.116109 11.47612,5.642214 25.63262,5.642214c14.15651,0 25.63262,-2.526105 25.63262,-5.642214c0,-3.116102 -11.47611,-5.642207 -25.63262,-5.642207c-14.1565,0 -25.63262,2.526105 -25.63262,5.642207z" id="path4518"/>
      <path fill="#f21d1d" stroke="#000000" stroke-width="0.804733px" d="m-168.87552,188.219594l-0.0353,6.4657" id="path4520"/>
      <path fill="#f21d1d" stroke="#000000" stroke-width="0.804733px" d="m-161.08623,189.720574l-0.004,6.29594" id="path4522"/>
      <path fill="#f21d1d" stroke="#000000" stroke-width="0.804733px" d="m-153.89099,190.325424l0.0628,6.47891" id="path4524"/>
      <path fill="#f21d1d" stroke="#000000" stroke-width="0.804733px" d="m-148.4486,190.452854l0.00001,6.47595l0,0" id="path4526"/>
      <path fill="#f21d1d" stroke="#000000" stroke-width="0.804733px" d="m-143.7313,190.357514l0.089,6.47227" id="path4528"/>
      <path fill="#f21d1d" stroke="#000000" stroke-width="0.804733px" d="m-139.63629,190.110574l0.0283,6.34071" id="path4530"/>
      <path fill="#f21d1d" stroke="#000000" stroke-width="0.804733px" d="m-136.10532,189.756794l0.0243,6.434" id="path4532"/>
      <path fill="#f21d1d" stroke="#000000" stroke-width="0.804733px" d="m-133.30468,189.351334l-0.0429,6.49486" id="path4534"/>
      <path fill="#f21d1d" d="m-131.5905,195.540364l0.0587,-6.76505l7.97706,-3.52708l0.80357,1.15641l-0.17857,5.31953l-0.625,0.69385l-0.89286,0.98296l-7.1429,2.13938z" id="path4536"/>
      <path fill="#f21d1d" stroke="#000000" stroke-miterlimit="4" stroke-dashoffset="0" id="path4538" d="m-166.169088,184.810645c0,1.962083 7.93374,3.552666 17.720497,3.552666c9.786764,0 17.720497,-1.590582 17.720497,-3.552666c0,-1.962079 -7.933734,-3.552661 -17.720497,-3.552661c-9.786757,0 -17.720497,1.590582 -17.720497,3.552661z"/>
     </g>
     <g transform="matrix(6.0838746,0,0,6.0838746,1383.0703,-642.68028) " id="g4540">
      <path fill="#f21d1d" stroke="#000000" stroke-width="1.805" stroke-miterlimit="4" d="m-174.08122,184.810644l0,6.47595c0.00001,3.11611 11.47612,5.64221 25.63263,5.64221c14.1565,0 25.63262,-2.5261 25.63262,-5.64221l0,-6.47595l-51.26525,0" id="path4542"/>
      <path fill="#f21d1d" stroke="#000000" stroke-width="2.242981" stroke-miterlimit="4" stroke-dashoffset="0" d="m-174.08122,184.810643c0,3.116109 11.47612,5.642214 25.63262,5.642214c14.15651,0 25.63262,-2.526105 25.63262,-5.642214c0,-3.116102 -11.47611,-5.642207 -25.63262,-5.642207c-14.1565,0 -25.63262,2.526105 -25.63262,5.642207z" id="path4544"/>
      <path fill="#f21d1d" stroke="#000000" stroke-width="0.804733px" d="m-168.87552,188.219594l-0.0353,6.4657" id="path4546"/>
      <path fill="#f21d1d" stroke="#000000" stroke-width="0.804733px" d="m-161.08623,189.720574l-0.004,6.29594" id="path4548"/>
      <path fill="#f21d1d" stroke="#000000" stroke-width="0.804733px" d="m-153.89099,190.325424l0.0628,6.47891" id="path4550"/>
      <path fill="#f21d1d" stroke="#000000" stroke-width="0.804733px" d="m-148.4486,190.452854l0.00001,6.47595l0,0" id="path4552"/>
      <path fill="#f21d1d" stroke="#000000" stroke-width="0.804733px" d="m-143.7313,190.357514l0.089,6.47227" id="path4554"/>
      <path fill="#f21d1d" stroke="#000000" stroke-width="0.804733px" d="m-139.63629,190.110574l0.0283,6.34071" id="path4556"/>
      <path fill="#f21d1d" stroke="#000000" stroke-width="0.804733px" d="m-136.10532,189.756794l0.0243,6.434" id="path4558"/>
      <path fill="#f21d1d" stroke="#000000" stroke-width="0.804733px" d="m-133.30468,189.351334l-0.0429,6.49486" id="path4560"/>
      <path fill="#f21d1d" d="m-131.5905,195.540364l0.0587,-6.76505l7.97706,-3.52708l0.80357,1.15641l-0.17857,5.31953l-0.625,0.69385l-0.89286,0.98296l-7.1429,2.13938z" id="path4562"/>
      <path fill="#f21d1d" stroke="#000000" stroke-miterlimit="4" stroke-dashoffset="0" id="path4564" d="m-166.169088,184.810645c0,1.962083 7.93374,3.552666 17.720497,3.552666c9.786764,0 17.720497,-1.590582 17.720497,-3.552666c0,-1.962079 -7.933734,-3.552661 -17.720497,-3.552661c-9.786757,0 -17.720497,1.590582 -17.720497,3.552661z"/>
     </g>
     <g transform="matrix(6.0838746,0,0,6.0838746,1383.0703,-691.35126) " id="g4566">
      <path fill="#f21d1d" stroke="#000000" stroke-width="1.805" stroke-miterlimit="4" id="path4568" d="m-174.08122,184.810644l0,6.47595c0.00001,3.11611 11.47612,5.64221 25.63263,5.64221c14.1565,0 25.63262,-2.5261 25.63262,-5.64221l0,-6.47595l-51.26525,0"/>
      <path fill="#f21d1d" stroke="#000000" stroke-width="2.242981" stroke-miterlimit="4" stroke-dashoffset="0" id="path4570" d="m-174.08122,184.810643c0,3.116109 11.47612,5.642214 25.63262,5.642214c14.15651,0 25.63262,-2.526105 25.63262,-5.642214c0,-3.116102 -11.47611,-5.642207 -25.63262,-5.642207c-14.1565,0 -25.63262,2.526105 -25.63262,5.642207z"/>
      <path fill="#f21d1d" stroke="#000000" stroke-width="0.804733px" id="path4572" d="m-168.87552,188.219594l-0.0353,6.4657"/>
      <path fill="#f21d1d" stroke="#000000" stroke-width="0.804733px" id="path4574" d="m-161.08623,189.720574l-0.004,6.29594"/>
      <path fill="#f21d1d" stroke="#000000" stroke-width="0.804733px" id="path4576" d="m-153.89099,190.325424l0.0628,6.47891"/>
      <path fill="#f21d1d" stroke="#000000" stroke-width="0.804733px" id="path4578" d="m-148.4486,190.452854l0.00001,6.47595l0,0"/>
      <path fill="#f21d1d" stroke="#000000" stroke-width="0.804733px" id="path4580" d="m-143.7313,190.357514l0.089,6.47227"/>
      <path fill="#f21d1d" stroke="#000000" stroke-width="0.804733px" id="path4582" d="m-139.63629,190.110574l0.0283,6.34071"/>
      <path fill="#f21d1d" stroke="#000000" stroke-width="0.804733px" id="path4584" d="m-136.10532,189.756794l0.0243,6.434"/>
      <path fill="#f21d1d" stroke="#000000" stroke-width="0.804733px" id="path4586" d="m-133.30468,189.351334l-0.0429,6.49486"/>
      <path fill="#f21d1d" id="path4588" d="m-131.5905,195.540364l0.0587,-6.76505l7.97706,-3.52708l0.80357,1.15641l-0.17857,5.31953l-0.625,0.69385l-0.89286,0.98296l-7.1429,2.13938z"/>
      <path fill="#f21d1d" stroke="#000000" stroke-miterlimit="4" stroke-dashoffset="0" d="m-166.169088,184.810645c0,1.962083 7.93374,3.552666 17.720497,3.552666c9.786764,0 17.720497,-1.590582 17.720497,-3.552666c0,-1.962079 -7.933734,-3.552661 -17.720497,-3.552661c-9.786757,0 -17.720497,1.590582 -17.720497,3.552661z" id="path4590"/>
     </g>
     <g id="g4592" transform="matrix(6.0838746,0,0,6.0838746,1358.7347,-740.02224) ">
      <path fill="#f21d1d" stroke="#000000" stroke-width="1.805" stroke-miterlimit="4" d="m-174.08122,184.810644l0,6.47595c0.00001,3.11611 11.47612,5.64221 25.63263,5.64221c14.1565,0 25.63262,-2.5261 25.63262,-5.64221l0,-6.47595l-51.26525,0" id="path4594"/>
      <path fill="#f21d1d" stroke="#000000" stroke-width="2.242981" stroke-miterlimit="4" stroke-dashoffset="0" d="m-174.08122,184.810643c0,3.116109 11.47612,5.642214 25.63262,5.642214c14.15651,0 25.63262,-2.526105 25.63262,-5.642214c0,-3.116102 -11.47611,-5.642207 -25.63262,-5.642207c-14.1565,0 -25.63262,2.526105 -25.63262,5.642207z" id="path4596"/>
      <path fill="#f21d1d" stroke="#000000" stroke-width="0.804733px" d="m-168.87552,188.219594l-0.0353,6.4657" id="path4598"/>
      <path fill="#f21d1d" stroke="#000000" stroke-width="0.804733px" d="m-161.08623,189.720574l-0.004,6.29594" id="path4600"/>
      <path fill="#f21d1d" stroke="#000000" stroke-width="0.804733px" d="m-153.89099,190.325424l0.0628,6.47891" id="path4602"/>
      <path fill="#f21d1d" stroke="#000000" stroke-width="0.804733px" d="m-148.4486,190.452854l0.00001,6.47595l0,0" id="path4604"/>
      <path fill="#f21d1d" stroke="#000000" stroke-width="0.804733px" d="m-143.7313,190.357514l0.089,6.47227" id="path4606"/>
      <path fill="#f21d1d" stroke="#000000" stroke-width="0.804733px" d="m-139.63629,190.110574l0.0283,6.34071" id="path4608"/>
      <path fill="#f21d1d" stroke="#000000" stroke-width="0.804733px" d="m-136.10532,189.756794l0.0243,6.434" id="path4610"/>
      <path fill="#f21d1d" stroke="#000000" stroke-width="0.804733px" d="m-133.30468,189.351334l-0.0429,6.49486" id="path4612"/>
      <path fill="#f21d1d" d="m-131.5905,195.540364l0.0587,-6.76505l7.97706,-3.52708l0.80357,1.15641l-0.17857,5.31953l-0.625,0.69385l-0.89286,0.98296l-7.1429,2.13938z" id="path4614"/>
      <path fill="#f21d1d" stroke="#000000" stroke-miterlimit="4" stroke-dashoffset="0" id="path4616" d="m-166.169088,184.810645c0,1.962083 7.93374,3.552666 17.720497,3.552666c9.786764,0 17.720497,-1.590582 17.720497,-3.552666c0,-1.962079 -7.933734,-3.552661 -17.720497,-3.552661c-9.786757,0 -17.720497,1.590582 -17.720497,3.552661z"/>
     </g>
    </g>
   </g>
  </g>
 </g>
</svg>